<svg xmlns="http://www.w3.org/2000/svg" xmlns:xlink="http://www.w3.org/1999/xlink" version="1.1" baseProfile="tiny" x="0px" y="0px" viewBox="0 0 24 30" overflow="scroll" xml:space="preserve"><path d="M22.7412109,6.2978516H10.2545166L8.6606445,3.3300781c-0.1958008-0.3652344-0.6503906-0.5009766-1.015625-0.3066406  c-0.3647461,0.1962891-0.5019531,0.6513672-0.3056641,1.015625l1.2130127,2.2587891H1.5078125  c-0.2073975,0-0.3950195,0.0843506-0.5308228,0.22052c-0.3320313,0.1381836-0.5328369,0.487793-0.4486694,0.8497925  c0.0493164,0.2109375,1.2446289,5.1738281,4.4819336,5.1738281h6.8952026l1.4636841,2.7255859l-0.0356445,0.0205078  c-0.0102539,0.0058594-0.0205078,0.0117188-0.0307617,0.0185547c-0.6821289,0.4316406-0.9174805,1.3222656-0.5146484,2.0634766  l1.7954102,2.9248047c0.1904297,0.3525391,0.5283203,0.6152344,0.9262695,0.7197266  c0.1293945,0.0341797,0.2617188,0.0507813,0.3920898,0.0507813c0.2739258,0,0.5395508-0.0732422,0.753418-0.2080078  l1.3500977-0.7666016c0.3706055-0.1884766,0.6430664-0.5283203,0.7480469-0.9326172  c0.1040039-0.4003906,0.0327148-0.8251953-0.1743164-1.1318359l-1.8032227-3.015625  c-0.4438477-0.6582031-1.315918-0.8837891-2.0615234-0.5058594l-0.0400391,0.0224609l-1.0662842-1.9853516h9.0877686  c0.0080566,0,0.0147095-0.0043335,0.0227051-0.0045776c0.0079956,0.0002441,0.0146484,0.0045776,0.0227051,0.0045776  c0.4140625,0,0.75-0.3359375,0.75-0.75V7.0478516C23.4912109,6.6337891,23.1552734,6.2978516,22.7412109,6.2978516z   M14.0986328,16.5791016l1.3242188-0.7529297c0.0170898-0.0087891,0.0366211-0.0097656,0.0532227-0.0097656  c0.0205078,0,0.0371094,0.0029297,0.0336914-0.0019531l1.7856445,2.9550781l-1.4130859,0.7763672l-1.7954102-2.9257813  C14.0795898,16.6074219,14.0844727,16.5908203,14.0986328,16.5791016z M5.0102539,11.0419922  c-1.3884888,0-2.3463745-1.927002-2.7954102-3.2441406h7.1430054l1.7421265,3.2441406H5.0102539z M11.0601196,7.7978516h10.9310913  v3.2441406h-9.1887817L11.0601196,7.7978516z"/><text x="0" y="39" fill="#000000" font-size="5px" font-weight="bold" font-family="'Helvetica Neue', Helvetica, Arial-Unicode, Arial, Sans-serif">Created by Strongicon.com</text><text x="0" y="44" fill="#000000" font-size="5px" font-weight="bold" font-family="'Helvetica Neue', Helvetica, Arial-Unicode, Arial, Sans-serif">from the Noun Project</text></svg>